<svg id="untitled" xmlns="http://www.w3.org/2000/svg" xmlns:xlink="http://www.w3.org/1999/xlink" viewBox="0 0 300 300" shape-rendering="geometricPrecision" text-rendering="geometricPrecision" project-id="2537f1449a71437784d87ea9c1ecde23" export-id="bb3471e32e2144e39b3e96d6c5f2ca60" cached="false"><g id="untitled-s-g1" transform="translate(203.766162-22.924996)"><line id="untitled-s-line1" x1="-15.467017" y1="0" x2="15.467017" y2="0" transform="matrix(0-.32228-.579816 0 47.470222 42.809617)" fill="none" stroke="#3f5787" stroke-width="0.5"/><line id="untitled-s-line2" x1="-15.467017" y1="0" x2="15.467017" y2="0" transform="matrix(.32228 0 0-.579816 47.470222 42.809617)" fill="none" stroke="#3f5787" stroke-width="0.5"/><text id="untitled-s-text1" dx="0" dy="0" font-family="&quot;Roboto&quot;" font-size="5" font-weight="700" font-style="italic" transform="translate(45.724492 36.571562)" fill="#f00" stroke-width="0"><tspan id="untitled-s-tspan1" y="0" font-weight="700" stroke-width="0"><![CDATA[
N 
]]></tspan></text><text id="untitled-s-text2" dx="0" dy="0" font-family="&quot;Roboto&quot;" font-size="5" font-weight="700" font-style="italic" transform="translate(45.94831 52.539132)" stroke-width="0"><tspan id="untitled-s-tspan2" y="0" font-weight="700" stroke-width="0"><![CDATA[
S
]]></tspan></text><text id="untitled-s-text3" dx="0" dy="0" font-family="&quot;Roboto&quot;" font-size="5" font-weight="700" font-style="italic" transform="translate(53.081605 44.555347)" stroke-width="0"><tspan id="untitled-s-tspan3" y="0" font-weight="700" stroke-width="0"><![CDATA[
E
]]></tspan></text><text id="untitled-s-text4" dx="0" dy="0" font-family="&quot;Roboto&quot;" font-size="5" font-weight="700" font-style="italic" transform="translate(38.546428 44.555347)" stroke-width="0"><tspan id="untitled-s-tspan4" y="0" font-weight="700" stroke-width="0"><![CDATA[
O 
]]></tspan></text></g><path id="untitled-s-path3" d="M66.35176,221.21573C8.156185,174.535208,34.493096,20.841355,34.493096,20.841355s220.164413-.630087,220.164413-.630087v76.063285h-91.910061l-.000001,35.644259h91.910063c0,0-.000002,124.582972-.000002,124.582972s-135.52612,7.050164-188.305748-35.286054Z" transform="matrix(.985419 0 0 0.991291-17.161788-11.385644)" fill="#bacbff" stroke="#3f5787" stroke-width="5" stroke-linecap="round" stroke-linejoin="round"/><path id="untitled-s-path4" d="" fill="none" stroke="#3f5787" stroke-width="0.6"/></svg>
